<svg xmlns="http://www.w3.org/2000/svg" data-name="Layer 1" viewBox="0 0 66.11 138.22"><path d="M65.75 120.43a1841 1841 0 0 1-21.87-59.21 5 5 0 0 0-1.62-2.33c-1.97-2.34-6.2-3.06-8.4.32A527 527 0 0 0 .55 118.66a5 5 0 0 0 .4 5.17 5.2 5.2 0 0 0 2.77 2.63c4.94 2.05 8.73 6.2 13.66 8.38a40 40 0 0 0 14.72 3.35c10.74.43 21.16-3.58 29.82-9.72a5 5 0 0 0 1.99-2.73c1.75-.96 2.81-2.84 1.85-5.31m-35.34 7.66c-7.67-.74-12.98-5.2-19.1-8.77A527 527 0 0 1 37.3 72.47a1846 1846 0 0 0 17.99 48.45c-7.4 4.89-15.85 8.04-24.87 7.17M44.56 6.21C40.07 2.76 34.73 1.28 29.18.64 24.58.12 18.05-.94 14.02 1.83c-5.28 3.62-.28 12.29 5.04 8.63 1.32-.9 5.4-.18 6.98-.09 2.42.15 4.8.45 7.13 1.14 5.38 1.58 8.98 5.62 11.54 10.49 1.36 2.58 1.41 4.13-1.08 6.03-2.07 1.58-4.67 2.02-7.22 2.07-1.29.03-3.1.05-4.36-.33-1.97-.6-1.26 1.13-2.16-1.7l-.24-1.63c1.16-.05 2.38-.04 2.46-.04 6.44.23 6.43-9.77 0-10-4.33-.15-10.37.25-12.11 5-1.58 4.31-.11 12.23 3.33 15.46 3.67 3.44 10.9 3.54 15.59 3.08 5.31-.52 10.42-2.67 13.84-6.9 7.3-9.01-.4-20.84-8.2-26.83"/></svg>